<svg width="124" height="34" viewBox="0 0 124 34" fill="none" xmlns="http://www.w3.org/2000/svg">
<path fill-rule="evenodd" clip-rule="evenodd" d="M11.3073 1.20696L3.32274 5.40459C2.84155 5.65757 2.59448 6.01731 2.55902 6.40262H2.55545V6.45635C2.55424 6.48569 2.55425 6.51514 2.55545 6.54469V27.3949C2.55409 27.4239 2.55419 27.4591 2.55545 27.502C2.56758 27.916 2.81247 28.3318 3.32274 28.6001L11.3073 32.7977C12.0898 33.2091 13.2804 33.2091 14.0629 32.7977L22.0474 28.6001C22.5598 28.3307 22.8211 27.9177 22.8311 27.502H22.8314V27.477V6.40262H22.8239C22.7775 6.0215 22.5187 5.65234 22.0474 5.40459L14.0629 1.20696C13.2804 0.795596 12.0898 0.795596 11.3073 1.20696ZM3.81222 27.4605L11.3073 31.3799C11.7587 31.62 12.2284 31.8538 12.6851 31.8553C13.1056 31.8567 13.5146 31.6571 13.9279 31.4553L14.0078 31.4164L21.5747 27.4267V18.1738L14.0629 22.1229C13.2804 22.5343 12.0898 22.5343 11.3073 22.1229L3.81222 18.1826V27.4605ZM3.81222 15.4217L10.9582 11.6649L3.81222 7.90816V15.4217ZM21.5747 7.89935V15.4305L14.4119 11.6649L21.5747 7.89935ZM13.4759 2.31311L21.4604 6.51074L21.4786 6.52057L21.4912 6.52771L21.4844 6.53162C21.4768 6.53592 21.4688 6.54028 21.4604 6.54469L13.4759 10.7423C13.0607 10.9606 12.3094 10.9606 11.8942 10.7423L3.90969 6.54469L3.89149 6.53486L3.87896 6.52771L3.88572 6.52381C3.89332 6.5195 3.90131 6.51514 3.90969 6.51074L11.8942 2.31311C12.3094 2.09481 13.0607 2.09481 13.4759 2.31311ZM13.4759 12.5876L21.4604 16.7852L21.4786 16.795L21.4912 16.8022L21.4844 16.8061L21.4678 16.8153L21.4604 16.8192L13.4759 21.0168C13.4262 21.0429 13.3717 21.0659 13.3135 21.0858V12.5185C13.3717 12.5384 13.4262 12.5614 13.4759 12.5876ZM12.0567 12.5185C11.9985 12.5384 11.9439 12.5614 11.8942 12.5876L3.90969 16.7852C3.90131 16.7896 3.89332 16.794 3.88572 16.7983L3.87896 16.8022L3.89149 16.8093L3.90969 16.8192L11.8942 21.0168C11.9439 21.0429 11.9985 21.0659 12.0567 21.0858V12.5185ZM22.7545 2.77342L22.104 3.84378L22.5576 4.1162L22.7053 4.20623C22.8305 4.28339 22.9334 4.34906 23.0268 4.41173L23.0511 4.42812C23.4767 4.71662 23.7097 4.95373 23.8651 5.26399C24.0525 5.63831 24.1469 6.16964 24.1469 6.97805H25.4037L25.4035 6.92182C25.3946 5.07582 24.9422 4.18842 23.7293 3.37449C23.6159 3.29835 23.4942 3.22088 23.3474 3.1307L23.2621 3.07856L22.7545 2.77342ZM3.29961 30.1776L2.64914 31.2479L2.14154 30.9428L2.05622 30.8906C1.90945 30.8005 1.7878 30.723 1.67433 30.6469C0.461416 29.8329 0.00906095 28.9455 0.000135141 27.0995L0 27.0433H1.25678C1.25678 27.8517 1.35117 28.383 1.53858 28.7574C1.69392 29.0676 1.927 29.3047 2.35258 29.5932L2.37688 29.6096C2.47027 29.6723 2.57316 29.7379 2.6984 29.8151L2.84609 29.9051L3.29961 30.1776Z" fill="white"/>
<path fill-rule="evenodd" clip-rule="evenodd" d="M38.1709 14.8528V26.6195H35.379V14.8528H32.6978V12.6983H35.379V10.9306C35.379 9.38376 35.7706 8.20525 36.5538 7.39502C37.337 6.5848 38.4381 6.17969 39.8571 6.17969C40.5942 6.17969 41.2668 6.27176 41.875 6.4559V8.74847C41.3774 8.60116 40.9075 8.5275 40.4652 8.5275C38.9357 8.5275 38.1709 9.40217 38.1709 11.1515V12.6983H41.4327V14.8528H38.1709ZM52.3099 26.1499C51.5083 26.5918 50.5731 26.8128 49.5042 26.8128C48.2695 26.8128 47.1869 26.5182 46.2563 25.9289C45.3256 25.3397 44.6023 24.5064 44.0863 23.4292C43.5704 22.352 43.3124 21.0952 43.3124 19.6589C43.3124 18.2226 43.575 16.952 44.1002 15.8471C44.6254 14.7423 45.3579 13.886 46.2977 13.2784C47.2376 12.6707 48.3064 12.3669 49.5042 12.3669C50.5731 12.3669 51.5037 12.5924 52.2961 13.0436C53.0885 13.4947 53.6966 14.1346 54.1205 14.9633V12.6983H56.8847V26.6195H54.1205V24.244C53.7151 25.0727 53.1115 25.708 52.3099 26.1499ZM50.1676 24.6031C48.8961 24.6031 47.9056 24.1704 47.1961 23.3049C46.4866 22.4394 46.1319 21.2241 46.1319 19.6589C46.1319 18.0753 46.4866 16.8369 47.1961 15.9438C47.9056 15.0507 48.8869 14.6042 50.14 14.6042C51.4115 14.6042 52.3928 15.0369 53.0839 15.9024C53.7749 16.7679 54.1205 18.0016 54.1205 19.6036C54.1205 21.1873 53.7749 22.4164 53.0839 23.2911C52.3928 24.1658 51.4207 24.6031 50.1676 24.6031ZM63.74 18.6921V26.6195H60.9757V16.6205C60.9757 15.1658 60.902 13.8584 60.7546 12.6983H63.353L63.6017 15.1014C64.044 14.2175 64.6844 13.5408 65.5229 13.0712C66.3614 12.6016 67.315 12.3669 68.3839 12.3669C71.7193 12.3669 73.3871 14.2267 73.3871 17.9464V26.6195H70.5952V18.1121C70.5952 16.8968 70.3603 16.0129 69.8904 15.4604C69.4204 14.908 68.6695 14.6318 67.6375 14.6318C66.4581 14.6318 65.5137 15.0001 64.8042 15.7367C64.0947 16.4732 63.74 17.4584 63.74 18.6921ZM82.7302 26.8128C83.5041 26.8128 84.1952 26.7115 84.8033 26.509V24.244C84.3058 24.3913 83.8174 24.465 83.3383 24.465C82.6012 24.465 82.0253 24.267 81.6106 23.8711C81.196 23.4752 80.9887 22.7985 80.9887 21.841V14.8528H84.831V12.6983H80.9887V8.25129L78.1968 9.21803V12.6983H75.4879V14.8528H78.1968V22.0619C78.1968 23.6087 78.593 24.7872 79.3855 25.5975C80.1779 26.4077 81.2928 26.8128 82.7302 26.8128ZM96.9659 25.9289C95.9339 26.5182 94.7453 26.8128 93.4001 26.8128C92.0364 26.8128 90.8385 26.5182 89.8066 25.9289C88.7746 25.3397 87.9776 24.5018 87.4155 23.4154C86.8535 22.3289 86.5724 21.0584 86.5724 19.6036C86.5724 18.1489 86.8535 16.8737 87.4155 15.7781C87.9776 14.6824 88.7746 13.84 89.8066 13.2507C90.8385 12.6615 92.0364 12.3669 93.4001 12.3669C94.7453 12.3669 95.9339 12.6615 96.9659 13.2507C97.9979 13.84 98.7949 14.6824 99.3569 15.7781C99.919 16.8737 100.2 18.1489 100.2 19.6036C100.2 21.0584 99.919 22.3289 99.3569 23.4154C98.7949 24.5018 97.9979 25.3397 96.9659 25.9289ZM93.3724 24.6031C92.1009 24.6031 91.1196 24.1796 90.4285 23.3325C89.7375 22.4855 89.3919 21.2425 89.3919 19.6036C89.3919 18.0016 89.7421 16.7679 90.4423 15.9024C91.1426 15.0369 92.1285 14.6042 93.4001 14.6042C94.6532 14.6042 95.6253 15.0369 96.3163 15.9024C97.0074 16.7679 97.3529 18.0016 97.3529 19.6036C97.3529 21.2425 97.012 22.4855 96.3301 23.3325C95.6483 24.1796 94.6624 24.6031 93.3724 24.6031ZM106.226 18.7474V26.6195H103.462V16.6205C103.462 15.1658 103.388 13.8584 103.241 12.6983H105.839L106.088 15.0185C106.493 14.1715 107.074 13.5177 107.829 13.0574C108.585 12.597 109.469 12.3669 110.483 12.3669C112.639 12.3669 114.049 13.2599 114.712 15.0461C115.136 14.2175 115.758 13.5638 116.578 13.085C117.398 12.6062 118.324 12.3669 119.356 12.3669C122.452 12.3669 124 14.2267 124 17.9464V26.6195H121.208V18.0845C121.208 16.8875 121.001 16.0129 120.586 15.4604C120.172 14.908 119.504 14.6318 118.582 14.6318C117.513 14.6318 116.67 15.0001 116.053 15.7367C115.436 16.4732 115.127 17.4768 115.127 18.7474V26.6195H112.335V18.0845C112.335 16.8875 112.128 16.0129 111.713 15.4604C111.298 14.908 110.63 14.6318 109.709 14.6318C108.64 14.6318 107.792 15.0001 107.166 15.7367C106.539 16.4732 106.226 17.4768 106.226 18.7474Z" fill="white"/>
</svg>
